# xmcd
#
# Track frame offsets:
# 150
# 19252
# 41632
# 53250
# 63640
# 82877
# 98337
# 120217
# 138022
# 153787
# 169567
# 184010
#
# Disc length: 2707 seconds
#
#
# Revision: 0
# Processed by: cddbd v1.5.2PL0 Copyright (c) Steve Scherf et al.
# Submitted via: Nero 7, 11, 10, 0 
#
DISCID=7c0a910c
DTITLE=Paul Mark and The Van Dorens - Disposable Soul
DYEAR=1997
DGENRE=Blues
TTITLE0=Grow Old
TTITLE1=Drinkin' On The Job
TTITLE2=Tidal Rave
TTITLE3=Prison Of One
TTITLE4=Whatever Happened To Memphis
TTITLE5=Somekind Of Something
TTITLE6=Believing The Truth
TTITLE7=This Haunted Life
TTITLE8=Deanna I Do
TTITLE9=Hard Hitting Journalism
TTITLE10=Walk Into The Fire
TTITLE11=Credit Line
EXTD=
EXTT0=Grow Old
EXTT1=Drinkin' On The Job
EXTT2=Tidal Rave
EXTT3=Prison Of One
EXTT4=Whatever Happened To Memphis
EXTT5=Somekind Of Something
EXTT6=Believing The Truth
EXTT7=This Haunted Life
EXTT8=Deanna I Do
EXTT9=Hard Hitting Journalism
EXTT10=Walk Into The Fire
EXTT11=Credit Line
PLAYORDER=
